<svg width="1280" height="449" viewBox="0 0 1280 449" fill="none" xmlns="http://www.w3.org/2000/svg">
<path d="M166.49 235.35C112.62 295.46 47.9801 347.63 -36.5099 364.07C55.9201 391.86 165.36 438.35 236.24 408.3C253.82 400.93 267.43 389.59 278.77 370.87L279.34 372C250.99 417.93 206.76 453.65 125.1 447.42C68.9601 442.88 -4.18994 391.85 -58.6199 367.47C-75.0599 369.17 -92.6399 369.74 -110.79 368.6C-126.67 368.03 -136.31 362.93 -136.31 357.26C-136.31 351.59 -128.37 346.49 -112.5 346.49C-103.99 346.49 -87.5499 350.46 -66.5699 355.56L-48.4299 360.65C26.4201 344.78 77.45 301.68 120.55 251.22C99 256.89 78.0201 260.29 59.3101 260.29C-4.76994 260.29 -60.8999 229.67 -60.8999 168.43C-60.8999 91.8798 33.8001 35.1698 131.89 35.1698C152.3 35.1698 173.28 37.4398 193.7 43.1098V44.2398C168.76 37.4298 139.84 36.2998 133.6 36.2998C40.6001 36.2998 -39.9199 92.4398 -39.9199 167.85C-39.9199 237.03 14.5201 258.01 59.3101 258.01C78.5901 258.01 100.14 254.61 123.39 248.37L133.03 236.46C217.52 132.69 288.97 -0.000244141 381.4 -0.000244141C400.11 -0.000244141 411.45 10.2098 411.45 27.2198C411.45 86.1898 283.86 188.26 166.49 235.33V235.35ZM-67.6999 364.07C-96.6099 352.16 -134.04 343.66 -134.04 357.27C-134.04 361.81 -126.1 366.91 -110.79 366.91C-95.4799 366.91 -81.2999 365.78 -67.6999 364.07ZM169.9 231.95C285.58 184.32 409.19 84.5198 409.19 26.6798C409.19 10.2398 399.55 3.42978 387.64 3.42978C321.3 3.42978 261.76 128.18 169.89 231.95H169.9Z" fill="#FF76DC"/>
<path d="M351.7 18.2698C552.43 18.2698 530.32 177.04 435.06 294.42H436.19C399.33 344.89 336.96 400.45 314.27 400.45C304.63 400.45 300.66 390.82 300.66 382.88C300.66 368.7 313.7 347.16 331.85 322.21C295.56 363.6 251.33 401.59 234.89 401.59C218.45 401.59 216.18 379.48 216.18 371.54C216.18 315.4 290.46 215.6 359.07 215.6C373.81 215.6 382.32 222.97 382.32 237.14C382.32 246.21 376.65 259.25 368.14 274L412.94 214.46C418.61 223.53 434.49 217.3 442.99 207.66H443.56C422.58 237.71 396.5 271.17 374.95 300.66C340.36 346.59 310.31 384.58 310.31 394.79C310.31 397.06 311.44 398.19 313.71 398.19C335.26 398.19 397.07 344.32 433.36 294.43H432.23C527.49 176.48 551.31 21.1098 351.71 21.1098C217.32 21.1098 54.58 128.28 -95.69 128.28C-153.53 128.28 -240.85 114.67 -241.99 33.0198L-241.42 32.4498C-234.62 103.9 -152.96 109.57 -96.26 109.57C54.57 109.57 216.75 18.2798 351.7 18.2798V18.2698ZM234.89 399.33C263.24 399.33 380.05 279.12 380.05 237.15C380.05 224.68 373.25 219.57 363.04 219.57C350.57 219.57 332.42 228.08 317.11 243.39C296.7 263.24 275.15 291.59 258.7 319.37C241.12 348.29 228.65 376.07 228.65 391.39C228.65 396.49 230.35 399.33 234.89 399.33Z" fill="#FF76DC"/>
<path d="M460.43 9.41943H518.21C553.32 9.41943 573.79 30.8694 573.79 67.4394V202.009C573.79 239.309 554.04 260.029 518.45 260.029H507.24V436.049H460.43V9.41943ZM516.01 212.499C522.59 212.499 526.25 208.359 526.25 200.799V71.8394C526.25 68.4294 524.3 59.8894 515.52 59.8894H507.23V212.499H516.01Z" fill="#FF76DC"/>
<path d="M611.57 9.66943H676.17L711.03 436.059H663.25L655.94 340.979H632.05L624.01 436.059H576.72L611.58 9.66943H611.57ZM634.25 292.219H635.23C636.45 291.979 636.69 291.979 637.91 291.979H650.1C651.07 291.979 651.56 291.979 652.78 292.219H653.75L653.99 291.979V290.519C653.75 289.789 653.75 288.079 653.5 287.349L645.46 131.569C645.22 126.449 644.73 105.479 644.73 101.829H642.78C642.78 105.729 642.29 126.449 642.05 131.569L634.25 287.349C634.25 288.079 634.25 289.789 634.01 290.519L633.77 291.979L634.26 292.219H634.25Z" fill="#FF76DC"/>
<path d="M729.81 9.66943H779.3V385.839H818.31V436.059H729.81V9.66943Z" fill="#FF76DC"/>
<path d="M869.51 9.66943H934.12L968.98 436.059H921.2L913.89 340.979H890L881.96 436.059H834.67L869.53 9.66943H869.51ZM892.18 292.219H893.15C894.37 291.979 894.61 291.979 895.83 291.979H908.02C908.99 291.979 909.48 291.979 910.7 292.219H911.67L911.91 291.979V290.519C911.67 289.789 911.67 288.079 911.42 287.349L903.37 131.569C903.13 126.449 902.64 105.479 902.64 101.829H900.69C900.69 105.729 900.2 126.449 899.96 131.569L892.16 287.349C892.16 288.079 892.16 289.789 891.92 290.519L891.68 291.979L892.17 292.219H892.18Z" fill="#FF76DC"/>
<path d="M985.3 370.229V75.2395C985.3 52.8095 985.54 6.24951 1038.45 6.24951H1040.89C1095.26 6.24951 1095.5 51.1095 1095.5 74.9995V202.75H1049.18L1049.42 77.6895C1049.42 61.5995 1048.45 56.4795 1041.38 56.4795H1039.18C1033.33 56.4795 1032.35 62.0895 1032.35 77.9295V367.549C1032.35 383.4 1033.08 388.76 1039.18 388.76H1041.62C1048.45 388.76 1049.42 383.88 1049.42 368.04V240.54H1095.5V370.24C1095.5 394.13 1095.5 438.99 1040.89 438.99H1038.45C985.3 438.99 985.3 392.43 985.3 370.24V370.229Z" fill="#FF76DC"/>
<path d="M1119.14 9.66943H1167.65V436.059H1119.14V9.66943Z" fill="#FF76DC"/>
<path d="M1191.3 370.229V74.9995C1191.3 51.1095 1191.54 6.49952 1245.91 6.00952H1248.59C1302.96 6.49952 1303.2 51.1095 1303.2 74.9995V370.229C1303.2 394.12 1303.2 438.979 1248.59 438.979H1245.91C1191.3 438.979 1191.3 394.12 1191.3 370.229ZM1246.89 388.76H1247.62C1255.18 388.52 1256.64 383.4 1256.64 366.58V78.9095C1256.64 61.8395 1255.42 56.7295 1247.62 56.4795H1246.89C1239.09 56.7195 1237.87 62.0895 1237.87 78.9095V366.58C1237.87 383.65 1239.09 388.76 1246.89 388.76Z" fill="#FF76DC"/>
</svg>
