<svg width="913" height="997" viewBox="0 0 913 997" fill="none" xmlns="http://www.w3.org/2000/svg">
<path d="M492.63 382.87C404.99 480.66 299.82 565.53 162.36 592.28C312.73 637.48 490.78 713.13 606.1 664.24C634.7 652.25 656.84 633.8 675.29 603.35L676.21 605.2C630.08 679.93 558.13 738.04 425.28 727.9C333.95 720.52 214.94 637.49 126.38 597.82C99.63 600.59 71.03 601.51 41.51 599.67C15.68 598.75 0 590.44 0 581.22C0 572 12.92 563.69 38.74 563.69C52.58 563.69 79.33 570.15 113.47 578.45L142.99 586.73C264.76 560.91 347.79 490.8 417.9 408.69C382.84 417.92 348.71 423.45 318.27 423.45C214.02 423.45 122.69 373.63 122.69 274C122.69 149.46 276.75 57.21 436.35 57.21C469.56 57.21 503.69 60.9 536.91 70.13V71.98C496.33 60.9 449.28 59.06 439.13 59.06C287.84 59.06 156.84 150.39 156.84 273.09C156.84 385.64 245.4 419.77 318.28 419.77C349.65 419.77 384.7 414.23 422.53 404.09L438.21 384.71C575.66 215.87 691.9 0 842.27 0C872.71 0 891.16 16.61 891.16 44.28C891.16 140.22 683.59 306.28 492.63 382.85V382.87ZM111.62 592.27C64.58 572.9 3.69 559.06 3.69 581.2C3.69 588.58 16.61 596.88 41.51 596.88C66.41 596.88 89.48 595.03 111.61 592.27H111.62ZM498.17 377.33C686.37 299.84 887.48 137.47 887.48 43.37C887.48 16.62 871.8 5.55 852.42 5.55C744.48 5.55 647.62 208.51 498.17 377.33Z" fill="#FF76DC"/>
<path d="M692.66 167.66H804.9C873.09 167.66 912.87 209.33 912.87 280.37V541.78C912.87 614.24 874.51 654.49 805.37 654.49H783.59V996.41H692.66V167.66ZM800.64 562.15C813.43 562.15 820.53 554.1 820.53 539.42V288.9C820.53 282.27 816.74 265.69 799.69 265.69H783.59V562.15H800.64Z" fill="#FF76DC"/>
</svg>
