<svg width="52" height="56" viewBox="0 0 52 56" fill="none" xmlns="http://www.w3.org/2000/svg">
<path d="M27.6867 21.518C22.7612 27.0139 16.8504 31.7838 9.12492 33.2872C17.576 35.8275 27.5827 40.0792 34.0639 37.3315C35.6713 36.6576 36.9156 35.6207 37.9525 33.9093L38.0042 34.0133C35.4116 38.2133 31.3679 41.4791 23.9015 40.9093C18.7686 40.4945 12.08 35.8281 7.10278 33.5985C5.59938 33.7542 3.99201 33.8059 2.33293 33.7025C0.881244 33.6508 0 33.1838 0 32.6656C0 32.1474 0.726127 31.6804 2.17726 31.6804C2.95509 31.6804 4.45849 32.0434 6.37721 32.5099L8.03629 32.9753C14.88 31.5241 19.5464 27.5838 23.4867 22.9691C21.5163 23.4878 19.5981 23.7986 17.8873 23.7986C12.0283 23.7986 6.89539 20.9987 6.89539 15.3993C6.89539 8.39991 15.5538 3.2153 24.5236 3.2153C26.3901 3.2153 28.3083 3.42269 30.1753 3.94143V4.0454C27.8946 3.42269 25.2503 3.31928 24.6799 3.31928C16.1771 3.31928 8.81468 8.45218 8.81468 15.3481C8.81468 21.6736 13.7919 23.5918 17.8879 23.5918C19.6509 23.5918 21.6208 23.2805 23.7469 22.7106L24.6282 21.6214C32.3531 12.1323 38.886 0 47.3371 0C49.0478 0 50.0848 0.933511 50.0848 2.48861C50.0848 7.88061 38.419 17.2135 27.6867 21.5168V21.518ZM6.27324 33.2866C3.62951 32.198 0.207384 31.4202 0.207384 32.6645C0.207384 33.0792 0.933511 33.5457 2.33293 33.5457C3.73236 33.5457 5.02893 33.4417 6.27268 33.2866H6.27324ZM27.998 21.2066C38.5752 16.8515 49.8779 7.72606 49.8779 2.43747C49.8779 0.934073 48.9967 0.31192 47.9075 0.31192C41.8411 0.31192 36.3974 11.7186 27.998 21.2066Z" fill="#954300"/>
<path d="M38.9287 9.42279H45.2368C49.0692 9.42279 51.3049 11.7647 51.3049 15.7573V30.449C51.3049 34.5214 49.149 36.7835 45.2632 36.7835H44.0391V56H38.9287V9.42279ZM44.9974 31.5938C45.7162 31.5938 46.1152 31.1414 46.1152 30.3164V16.2367C46.1152 15.8641 45.9022 14.9322 44.944 14.9322H44.0391V31.5938H44.9974Z" fill="#954300"/>
</svg>
